<svg width="634" height="430" viewBox="0 0 634 430" fill="none" xmlns="http://www.w3.org/2000/svg">
<path d="M352.563 38.7248L375.817 78.2674L399.705 117.431L377.087 157.34L355.114 197.609L309.242 197.977L263.382 199.082L240.128 159.54L216.24 120.377L238.858 80.4667L260.831 40.1978L306.703 39.8306L352.563 38.7248Z" fill="#002046"/>
<path d="M207.627 142.302L224.768 171.451L242.377 200.32L225.704 229.74L209.507 259.424L175.693 259.695L141.887 260.51L124.745 231.361L107.136 202.492L123.809 173.072L140.006 143.388L173.821 143.117L207.627 142.302Z" fill="#3570E5"/>
<path d="M95.7023 218.162L109.733 242.02L124.145 265.649L110.499 289.729L97.2417 314.025L69.5648 314.247L41.8949 314.914L27.8646 291.056L13.4518 267.426L27.0984 243.347L40.3555 219.05L68.0325 218.829L95.7023 218.162Z" fill="#002046"/>
<path d="M207.627 282.4L224.768 311.549L242.377 340.418L225.704 369.838L209.507 399.522L175.693 399.793L141.887 400.608L124.745 371.459L107.136 342.59L123.809 313.17L140.006 283.486L173.821 283.215L207.627 282.4Z" fill="#3570E5"/>
<path d="M320.852 219.08V283H308.632L279.022 240.23V283H266.896V219.08H279.022L308.632 261.756V219.08H320.852ZM340.704 217.2C342.646 217.2 344.276 217.858 345.592 219.174C346.97 220.49 347.66 222.119 347.66 224.062C347.66 226.005 346.97 227.634 345.592 228.95C344.276 230.266 342.646 230.924 340.704 230.924C338.824 230.924 337.226 230.266 335.91 228.95C334.594 227.634 333.936 226.005 333.936 224.062C333.936 222.119 334.594 220.49 335.91 219.174C337.226 217.858 338.824 217.2 340.704 217.2ZM346.814 237.41V283H334.594V237.41H346.814ZM353.38 283L370.582 259.876L354.884 239.196L367.386 237.41L378.384 252.074L389.852 237.41H403.2L385.622 261.662L401.696 283H388.254L377.726 269.37L366.916 283H353.38ZM430.648 284.128C423.441 284.128 417.801 281.966 413.728 277.642C409.717 273.255 407.712 267.396 407.712 260.064C407.712 252.795 409.811 246.998 414.01 242.674C418.271 238.35 424.068 236.188 431.4 236.188C438.982 236.188 444.842 238.444 448.978 242.956C453.176 247.405 455.276 253.265 455.276 260.534C455.276 267.803 453.02 273.569 448.508 277.83C443.996 282.029 438.042 284.128 430.648 284.128ZM442.68 260.534C442.68 256.21 441.708 252.826 439.766 250.382C437.886 247.875 435.191 246.622 431.682 246.622C428.11 246.622 425.321 247.719 423.316 249.912C421.31 252.105 420.308 255.458 420.308 259.97C420.308 264.482 421.154 267.897 422.846 270.216C424.6 272.535 427.264 273.694 430.836 273.694C434.345 273.694 437.196 272.66 439.39 270.592C441.583 268.461 442.68 265.109 442.68 260.534ZM475.095 242.298C477.163 240.23 479.732 238.601 482.803 237.41C485.936 236.219 488.725 235.624 491.169 235.624C497.373 235.624 501.76 237.441 504.329 241.076C506.961 244.711 508.277 249.16 508.277 254.424V283H496.057V254.988C496.057 252.105 495.368 249.912 493.989 248.408C492.61 246.841 490.605 246.058 487.973 246.058C486.218 246.058 484.37 246.528 482.427 247.468C480.547 248.345 478.824 249.379 477.257 250.57V283H465.037V237.41H471.429L475.095 242.298Z" fill="#002046"/>
<path d="M545.508 219.08C551.712 219.08 556.757 220.459 560.642 223.216C564.528 225.911 566.47 230.485 566.47 236.94C566.47 239.321 565.906 241.483 564.778 243.426C563.713 245.306 562.303 246.935 560.548 248.314C563.431 249.818 565.781 251.855 567.598 254.424C569.478 256.993 570.418 260.252 570.418 264.2C570.418 270.091 568.35 274.697 564.214 278.018C560.141 281.339 554.689 283 547.858 283H521.632V219.08H545.508ZM543.722 229.232H533.758V245.118H542.782C546.166 245.118 548.798 244.491 550.678 243.238C552.621 241.922 553.592 239.885 553.592 237.128C553.592 234.12 552.715 232.052 550.96 230.924C549.206 229.796 546.793 229.232 543.722 229.232ZM547.764 254.988H533.758V272.942H546.918C550.177 272.942 552.778 272.19 554.72 270.686C556.726 269.182 557.728 267.051 557.728 264.294C557.728 261.286 556.82 258.999 555.002 257.432C553.185 255.803 550.772 254.988 547.764 254.988ZM586.903 217.2C588.846 217.2 590.475 217.858 591.791 219.174C593.17 220.49 593.859 222.119 593.859 224.062C593.859 226.005 593.17 227.634 591.791 228.95C590.475 230.266 588.846 230.924 586.903 230.924C585.023 230.924 583.425 230.266 582.109 228.95C580.793 227.634 580.135 226.005 580.135 224.062C580.135 222.119 580.793 220.49 582.109 219.174C583.425 217.858 585.023 217.2 586.903 217.2ZM593.013 237.41V283H580.793V237.41H593.013ZM633.044 282.06C632.041 282.875 630.6 283.533 628.72 284.034C626.902 284.598 625.273 284.88 623.832 284.88C618.192 284.88 613.742 283.47 610.484 280.65C607.288 277.767 605.69 273.694 605.69 268.43V246.904H599.58V237.504H605.69V226.694L617.816 224.532V237.504H626.088L629.848 246.904H617.816V266.268C617.816 268.649 618.38 270.623 619.508 272.19C620.636 273.694 622.296 274.446 624.49 274.446C625.304 274.446 626.119 274.352 626.934 274.164C627.748 273.976 628.594 273.663 629.472 273.224L633.044 282.06Z" fill="#3570E5"/>
</svg>
