<svg width="422" height="430" viewBox="0 0 422 430" fill="none" xmlns="http://www.w3.org/2000/svg">
<path d="M352.563 38.7248L375.817 78.2674L399.705 117.431L377.087 157.34L355.114 197.609L309.242 197.977L263.382 199.082L240.128 159.54L216.24 120.377L238.858 80.4667L260.831 40.1978L306.703 39.8306L352.563 38.7248Z" fill="#002046"/>
<path d="M207.627 142.302L224.768 171.451L242.377 200.32L225.704 229.74L209.507 259.424L175.693 259.695L141.887 260.51L124.745 231.361L107.136 202.492L123.809 173.072L140.006 143.388L173.821 143.117L207.627 142.302Z" fill="#3570E5"/>
<path d="M95.7023 218.162L109.733 242.02L124.145 265.649L110.499 289.729L97.2417 314.025L69.5648 314.247L41.8949 314.914L27.8646 291.056L13.4518 267.426L27.0984 243.347L40.3555 219.05L68.0325 218.829L95.7023 218.162Z" fill="#002046"/>
<path d="M207.627 282.4L224.768 311.549L242.377 340.418L225.704 369.838L209.507 399.522L175.693 399.793L141.887 400.608L124.745 371.459L107.136 342.59L123.809 313.17L140.006 283.486L173.821 283.215L207.627 282.4Z" fill="#3570E5"/>
</svg>
